HIERARCHY
ROOT newVegas:Hips
{
	OFFSET 0.000000 96.479958 0.000000
	CHANNELS 6 Xposition Yposition Zposition Xrotation Yrotation Zrotation
	JOINT newVegas:Pelvis
	{
		OFFSET 0.000000 0.000000 0.000000
		CHANNELS 3 Xrotation Yrotation Zrotation
		JOINT newVegas:LeftUpLeg
		{
			OFFSET 18.735201 -5.666702 -4.541200
			CHANNELS 3 Xrotation Yrotation Zrotation
			JOINT newVegas:LeftLeg
			{
				OFFSET -0.021200 -31.938179 0.493100
				CHANNELS 3 Xrotation Yrotation Zrotation
				JOINT newVegas:LeftFoot
				{
					OFFSET 0.021200 -31.938179 -4.336299
					CHANNELS 3 Xrotation Yrotation Zrotation
					JOINT newVegas:LeftToeBase
					{
						OFFSET 0.943001 -26.722000 15.023500
						CHANNELS 3 Xrotation Yrotation Zrotation
						End Site
						{
							OFFSET 0.000000 30.670183 0.000000
						}
					}
				}
				JOINT newVegas:Left_PantLeg
				{
					OFFSET 0.663870 -9.044666 -1.108900
					CHANNELS 3 Xrotation Yrotation Zrotation
					End Site
					{
						OFFSET 1.415995 20.635357 0.000000
					}
				}
			}
		}
		JOINT newVegas:RightUpLeg
		{
			OFFSET -18.735201 -5.666702 -4.541200
			CHANNELS 3 Xrotation Yrotation Zrotation
			JOINT newVegas:RightLeg
			{
				OFFSET 0.018946 -31.938133 0.493100
				CHANNELS 3 Xrotation Yrotation Zrotation
				JOINT newVegas:RightFoot
				{
					OFFSET -0.018946 -31.938126 -4.336299
					CHANNELS 3 Xrotation Yrotation Zrotation
					JOINT newVegas:RightToeBase
					{
						OFFSET -0.943001 -26.722004 15.023500
						CHANNELS 3 Xrotation Yrotation Zrotation
						End Site
						{
							OFFSET 0.000000 30.670187 0.000000
						}
					}
				}
				JOINT newVegas:Right_PantLeg
				{
					OFFSET -0.661674 -9.044716 -1.108900
					CHANNELS 3 Xrotation Yrotation Zrotation
					End Site
					{
						OFFSET -1.415958 20.635269 0.000000
					}
				}
			}
		}
	}
	JOINT newVegas:Spine
	{
		OFFSET 0.000000 10.199997 -0.299500
		CHANNELS 3 Xrotation Yrotation Zrotation
		JOINT newVegas:Spine1
		{
			OFFSET 0.000000 11.900002 -1.516600
			CHANNELS 3 Xrotation Yrotation Zrotation
			JOINT newVegas:Spine2
			{
				OFFSET 0.000000 13.600006 -2.842500
				CHANNELS 3 Xrotation Yrotation Zrotation
				JOINT newVegas:Neck
				{
					OFFSET 0.000000 9.624100 -2.890100
					CHANNELS 3 Xrotation Yrotation Zrotation
					JOINT newVegas:Head
					{
						OFFSET 0.000000 14.068802 -1.351900
						CHANNELS 3 Xrotation Yrotation Zrotation
						JOINT newVegas:Hair_Back
						{
							OFFSET 0.000000 3.231903 -17.524799
							CHANNELS 3 Xrotation Yrotation Zrotation
							End Site
							{
								OFFSET 0.000000 19.849884 0.000000
							}
						}
						JOINT newVegas:Hair_Front
						{
							OFFSET 0.000000 31.260406 4.573800
							CHANNELS 3 Xrotation Yrotation Zrotation
							JOINT newVegas:Hair_Front1
							{
								OFFSET 0.000000 2.284103 11.993300
								CHANNELS 3 Xrotation Yrotation Zrotation
								JOINT newVegas:Hair_Front2
								{
									OFFSET 0.000000 2.284103 11.993300
									CHANNELS 3 Xrotation Yrotation Zrotation
									End Site
									{
										OFFSET 0.000000 12.208862 0.000000
									}
								}
							}
						}
						JOINT newVegas:Jowel
						{
							OFFSET 0.000000 -7.458206 6.864100
							CHANNELS 3 Xrotation Yrotation Zrotation
							End Site
							{
								OFFSET 0.000000 19.849884 0.000000
							}
						}
					}
				}
				JOINT newVegas:LeftShoulder
				{
					OFFSET 15.263000 10.923401 -0.547700
					CHANNELS 3 Xrotation Yrotation Zrotation
					JOINT newVegas:LeftArm
					{
						OFFSET 25.438599 -2.830597 -13.032500
						CHANNELS 3 Xrotation Yrotation Zrotation
						JOINT newVegas:LeftForeArm
						{
							OFFSET 29.960503 0.000000 0.000000
							CHANNELS 3 Xrotation Yrotation Zrotation
							JOINT newVegas:LeftHand
							{
								OFFSET 27.849251 0.000000 0.000000
								CHANNELS 3 Xrotation Yrotation Zrotation
								JOINT newVegas:LeftHandThumb1
								{
									OFFSET 4.487587 -3.305161 6.305391
									CHANNELS 3 Xrotation Yrotation Zrotation
									JOINT newVegas:LeftHandThumb2
									{
										OFFSET 5.480453 -3.164139 3.164143
										CHANNELS 3 Xrotation Yrotation Zrotation
										JOINT newVegas:LeftHandThumb3
										{
											OFFSET 5.159721 -2.978973 2.978967
											CHANNELS 3 Xrotation Yrotation Zrotation
											End Site
											{
												OFFSET 2.494507 5.926697 1.738678
											}
										}
									}
								}
								JOINT newVegas:LeftHandIndex1
								{
									OFFSET 18.578728 -0.527832 5.208049
									CHANNELS 3 Xrotation Yrotation Zrotation
									JOINT newVegas:LeftHandIndex2
									{
										OFFSET 3.192009 0.000000 0.000000
										CHANNELS 3 Xrotation Yrotation Zrotation
										JOINT newVegas:LeftHandIndex3
										{
											OFFSET 3.835129 0.000000 0.000000
											CHANNELS 3 Xrotation Yrotation Zrotation
											End Site
											{
												OFFSET -0.034599 3.816971 0.371180
											}
										}
									}
								}
								JOINT newVegas:LeftHandMiddle1
								{
									OFFSET 18.476105 0.000000 0.000000
									CHANNELS 3 Xrotation Yrotation Zrotation
									JOINT newVegas:LeftHandMiddle2
									{
										OFFSET 3.324875 0.000000 0.000000
										CHANNELS 3 Xrotation Yrotation Zrotation
										JOINT newVegas:LeftHandMiddle3
										{
											OFFSET 4.596550 0.000000 0.000000
											CHANNELS 3 Xrotation Yrotation Zrotation
											End Site
											{
												OFFSET 0.057701 4.578827 0.399218
											}
										}
									}
								}
								JOINT newVegas:LeftHandRing1
								{
									OFFSET 17.732719 0.121887 -4.201567
									CHANNELS 3 Xrotation Yrotation Zrotation
									JOINT newVegas:LeftHandRing2
									{
										OFFSET 2.733170 0.000000 0.000000
										CHANNELS 3 Xrotation Yrotation Zrotation
										JOINT newVegas:LeftHandRing3
										{
											OFFSET 3.178268 0.000000 0.000000
											CHANNELS 3 Xrotation Yrotation Zrotation
											End Site
											{
												OFFSET 0.119102 3.170624 0.185394
											}
										}
									}
								}
								JOINT newVegas:LeftHandPinky1
								{
									OFFSET 15.989624 -0.606689 -7.535461
									CHANNELS 3 Xrotation Yrotation Zrotation
									JOINT newVegas:LeftHandPinky2
									{
										OFFSET 2.538986 0.000000 0.000000
										CHANNELS 3 Xrotation Yrotation Zrotation
										JOINT newVegas:LeftHandPinky3
										{
											OFFSET 2.593102 0.000000 0.000000
											CHANNELS 3 Xrotation Yrotation Zrotation
											End Site
											{
												OFFSET -0.150902 2.584198 0.152708
											}
										}
									}
								}
							}
							JOINT newVegas:Left_Sleeve
							{
								OFFSET 0.267448 -0.649796 0.577675
								CHANNELS 3 Xrotation Yrotation Zrotation
								End Site
								{
									OFFSET 0.000000 15.991241 0.000000
								}
							}
							JOINT newVegas:Left_CapeC
							{
								OFFSET 15.715958 -8.608795 -6.935905
								CHANNELS 3 Xrotation Yrotation Zrotation
								JOINT newVegas:Left_CapeC1
								{
									OFFSET 0.000000 -8.688499 0.000000
									CHANNELS 3 Xrotation Yrotation Zrotation
									End Site
									{
										OFFSET 0.000000 8.688499 0.000000
									}
								}
							}
						}
						JOINT newVegas:Left_CapeB
						{
							OFFSET 26.118385 -8.608795 -7.079235
							CHANNELS 3 Xrotation Yrotation Zrotation
							JOINT newVegas:Left_CapeB1
							{
								OFFSET 0.000000 -8.688499 0.000000
								CHANNELS 3 Xrotation Yrotation Zrotation
								End Site
								{
									OFFSET 0.000000 8.688499 0.000000
								}
							}
						}
						JOINT newVegas:Left_CapeA
						{
							OFFSET 5.115639 -8.608795 -10.395809
							CHANNELS 3 Xrotation Yrotation Zrotation
							JOINT newVegas:Left_CapeA1
							{
								OFFSET 0.000000 -8.688499 0.000000
								CHANNELS 3 Xrotation Yrotation Zrotation
								End Site
								{
									OFFSET 0.000000 8.688499 0.000000
								}
							}
						}
					}
				}
				JOINT newVegas:RightShoulder
				{
					OFFSET -15.263000 10.923401 -0.547700
					CHANNELS 3 Xrotation Yrotation Zrotation
					JOINT newVegas:RightArm
					{
						OFFSET -25.438599 -2.830597 -13.032500
						CHANNELS 3 Xrotation Yrotation Zrotation
						JOINT newVegas:RightForeArm
						{
							OFFSET -29.960503 0.000000 0.000000
							CHANNELS 3 Xrotation Yrotation Zrotation
							JOINT newVegas:RightHand
							{
								OFFSET -27.849251 0.000000 0.000000
								CHANNELS 3 Xrotation Yrotation Zrotation
								JOINT newVegas:RightHandThumb1
								{
									OFFSET -4.487587 -3.305161 6.305391
									CHANNELS 3 Xrotation Yrotation Zrotation
									JOINT newVegas:RightHandThumb2
									{
										OFFSET -5.480453 -3.164139 3.164143
										CHANNELS 3 Xrotation Yrotation Zrotation
										JOINT newVegas:RightHandThumb3
										{
											OFFSET -5.159721 -2.978973 2.978967
											CHANNELS 3 Xrotation Yrotation Zrotation
											End Site
											{
												OFFSET -2.494507 5.926697 1.738678
											}
										}
									}
								}
								JOINT newVegas:RightHandIndex1
								{
									OFFSET -18.578728 -0.527832 5.208049
									CHANNELS 3 Xrotation Yrotation Zrotation
									JOINT newVegas:RightHandIndex2
									{
										OFFSET -3.192009 0.000000 0.000000
										CHANNELS 3 Xrotation Yrotation Zrotation
										JOINT newVegas:RightHandIndex3
										{
											OFFSET -3.835129 0.000000 0.000000
											CHANNELS 3 Xrotation Yrotation Zrotation
											End Site
											{
												OFFSET 0.034599 3.816971 0.371180
											}
										}
									}
								}
								JOINT newVegas:RightHandMiddle1
								{
									OFFSET -18.476105 0.000000 0.000000
									CHANNELS 3 Xrotation Yrotation Zrotation
									JOINT newVegas:RightHandMiddle2
									{
										OFFSET -3.324875 0.000000 0.000000
										CHANNELS 3 Xrotation Yrotation Zrotation
										JOINT newVegas:RightHandMiddle3
										{
											OFFSET -4.596550 0.000000 0.000000
											CHANNELS 3 Xrotation Yrotation Zrotation
											End Site
											{
												OFFSET -0.057701 4.578827 0.399218
											}
										}
									}
								}
								JOINT newVegas:RightHandRing1
								{
									OFFSET -17.732719 0.121887 -4.201567
									CHANNELS 3 Xrotation Yrotation Zrotation
									JOINT newVegas:RightHandRing2
									{
										OFFSET -2.733170 0.000000 0.000000
										CHANNELS 3 Xrotation Yrotation Zrotation
										JOINT newVegas:RightHandRing3
										{
											OFFSET -3.178268 0.000000 0.000000
											CHANNELS 3 Xrotation Yrotation Zrotation
											End Site
											{
												OFFSET -0.119102 3.170624 0.185394
											}
										}
									}
								}
								JOINT newVegas:RightHandPinky1
								{
									OFFSET -15.989624 -0.606689 -7.535461
									CHANNELS 3 Xrotation Yrotation Zrotation
									JOINT newVegas:RightHandPinky2
									{
										OFFSET -2.538986 0.000000 0.000000
										CHANNELS 3 Xrotation Yrotation Zrotation
										JOINT newVegas:RightHandPinky3
										{
											OFFSET -2.593102 0.000000 0.000000
											CHANNELS 3 Xrotation Yrotation Zrotation
											End Site
											{
												OFFSET 0.150902 2.584198 0.152708
											}
										}
									}
								}
							}
							JOINT newVegas:Right_CapeC
							{
								OFFSET -15.715958 -8.608795 -6.935905
								CHANNELS 3 Xrotation Yrotation Zrotation
								JOINT newVegas:Right_CapeC1
								{
									OFFSET 0.000000 -8.688499 0.000000
									CHANNELS 3 Xrotation Yrotation Zrotation
									End Site
									{
										OFFSET 0.000000 8.688499 0.000000
									}
								}
							}
							JOINT newVegas:Right_Sleeve
							{
								OFFSET -0.267448 -0.649994 0.577675
								CHANNELS 3 Xrotation Yrotation Zrotation
								End Site
								{
									OFFSET 0.000000 15.991302 0.000000
								}
							}
						}
						JOINT newVegas:Right_CapeA
						{
							OFFSET -5.115540 -8.608795 -10.395824
							CHANNELS 3 Xrotation Yrotation Zrotation
							JOINT newVegas:Right_CapeA1
							{
								OFFSET 0.000000 -8.688499 0.000000
								CHANNELS 3 Xrotation Yrotation Zrotation
								End Site
								{
									OFFSET 0.000000 8.688499 0.000000
								}
							}
						}
						JOINT newVegas:Right_CapeB
						{
							OFFSET -26.118187 -8.608795 -7.079266
							CHANNELS 3 Xrotation Yrotation Zrotation
							JOINT newVegas:Right_CapeB1
							{
								OFFSET 0.000000 -8.688499 0.000000
								CHANNELS 3 Xrotation Yrotation Zrotation
								End Site
								{
									OFFSET 0.000000 8.688499 0.000000
								}
							}
						}
					}
				}
				JOINT newVegas:Left_Collar
				{
					OFFSET 18.625099 8.655502 8.828100
					CHANNELS 3 Xrotation Yrotation Zrotation
					JOINT newVegas:Left_Collar1
					{
						OFFSET 14.783401 10.540405 -1.259500
						CHANNELS 3 Xrotation Yrotation Zrotation
						End Site
						{
							OFFSET 0.000000 18.199875 0.000000
						}
					}
				}
				JOINT newVegas:Collar_Back
				{
					OFFSET 0.000000 15.630707 -20.132601
					CHANNELS 3 Xrotation Yrotation Zrotation
					End Site
					{
						OFFSET 0.000000 22.523010 0.000000
					}
				}
				JOINT newVegas:Left_Peck
				{
					OFFSET 17.239599 -5.132599 25.482599
					CHANNELS 3 Xrotation Yrotation Zrotation
					End Site
					{
						OFFSET 0.000000 22.523010 0.000000
					}
				}
				JOINT newVegas:Right_Peck
				{
					OFFSET -17.239599 -5.132202 25.482599
					CHANNELS 3 Xrotation Yrotation Zrotation
					End Site
					{
						OFFSET 0.000000 22.523010 0.000000
					}
				}
				JOINT newVegas:Right_Collar
				{
					OFFSET -18.625099 8.655792 8.828100
					CHANNELS 3 Xrotation Yrotation Zrotation
					JOINT newVegas:Right_Collar1
					{
						OFFSET -14.783401 10.539993 -1.259500
						CHANNELS 3 Xrotation Yrotation Zrotation
						End Site
						{
							OFFSET 0.000000 18.199631 0.000000
						}
					}
				}
			}
		}
		JOINT newVegas:Belly
		{
			OFFSET 0.000000 -6.540398 9.014299
			CHANNELS 3 Xrotation Yrotation Zrotation
			End Site
			{
				OFFSET 0.000000 11.566666 0.000000
			}
		}
	}
	JOINT newVegas:ElvisFacialAnim_Joint
	{
		OFFSET 1.000000 -95.330101 -8.825800
		CHANNELS 3 Xrotation Yrotation Zrotation
		End Site
		{
			OFFSET 0.000000 35.315800 0.000000
		}
	}
}
MOTION
Frames: 4
Frame Time: 0.033333
0.992598 87.692108 5.214208 5.321975 -6.812322 -1.196084 -0.000000 -0.000000 -0.000000 -45.334021 3.664300 23.300511 64.322521 9.967633 -1.843810 13.838634 3.447155 -13.248651 -0.000001 -0.000001 0.000000 -0.000002 -0.000000 0.000000 -34.075769 -6.457680 4.478996 49.398981 -3.129064 -1.060932 -22.717016 -4.006281 -3.254851 0.000000 -0.000001 -0.000000 -0.000000 -0.000001 -0.000000 9.157871 3.400826 5.114535 6.470333 1.245914 1.054696 6.466600 1.203215 1.106508 0.854913 -0.240539 -0.558440 0.854904 -0.240539 -0.558444 -0.000003 -0.000000 -0.000001 0.854904 -0.240543 -0.558442 0.855045 -0.240544 -0.558440 0.000003 0.000000 0.000000 -0.000003 -0.000000 -0.000001 1.714229 -9.910144 -14.955334 -25.033574 2.035843 -69.523799 -0.000001 -31.083050 -0.000000 13.654375 3.263359 3.596271 -6.000618 -6.126528 4.616859 7.611073 24.884949 2.404781 0.000000 0.000001 -0.000003 0.627341 4.865617 -25.303740 0.597168 2.578783 -26.072055 0.000001 0.000000 0.000001 0.228098 3.737311 -13.572868 0.647817 2.679725 -27.176274 0.000001 0.000002 -0.000000 0.497925 4.572199 -22.159529 0.640727 2.665871 -27.024135 0.000003 -0.000004 0.000001 0.819763 5.240455 -29.412868 0.162884 1.373224 -13.528286 -0.000003 -0.000003 0.000001 0.000000 0.000001 -0.000001 0.000000 0.000001 -0.000001 0.000000 0.000001 -0.000001 0.000001 0.000000 -0.000000 0.000001 0.000000 -0.000000 0.000001 0.000000 -0.000000 0.000001 -0.000000 -0.000000 4.837346 17.854109 5.571855 -15.184315 0.557532 66.750121 -0.000000 21.833010 -0.000015 11.913305 10.721257 0.911416 -7.540289 -3.885184 -4.751879 7.955432 -28.077789 -3.121233 0.000001 -0.000003 0.000001 0.077617 -1.078651 14.294211 0.320950 -1.700539 21.373622 -0.000001 0.000000 0.000001 0.522883 -4.330363 26.062571 0.321239 -1.701304 21.383618 0.000001 0.000001 0.000003 2.082015 -6.655603 34.810896 0.321948 -1.703071 21.407071 0.000000 0.000000 0.000005 1.506572 -7.629576 42.130133 0.321238 -1.701304 21.383675 -0.000002 -0.000000 0.000000 -0.000001 0.000000 -0.000000 -0.000001 -0.000000 0.000000 -0.000001 0.000000 -0.000000 0.000000 0.000001 0.000000 0.000000 0.000001 0.000000 0.000000 0.000001 0.000000 0.000000 0.000001 0.000000 -0.000001 0.000000 -0.000000 -0.000001 0.000000 -0.000000 -0.000001 0.000000 -0.000000 -0.000001 0.000000 -0.000000 -0.000001 0.000000 -0.000000 -0.000001 0.000000 -0.000000 -0.000001 0.000000 -0.000000 -0.000000 0.000000 -0.000000 -0.000000 -0.000000 -0.000000 
0.956053 87.854988 5.145721 5.250241 -6.780321 -1.148059 -0.000000 0.000000 0.000000 -45.331433 3.601781 23.085614 63.481322 8.473227 -1.825482 14.906943 4.312914 -13.188420 0.000002 -0.000002 -0.000000 0.000001 -0.000001 -0.000000 -33.901104 -6.400858 4.532826 48.906101 -1.817555 -1.093983 -22.344856 -5.302177 -3.815881 -0.000000 0.000001 0.000000 0.000002 0.000000 -0.000001 9.094271 3.410536 5.105002 6.414797 1.354757 1.069277 6.411324 1.305732 1.106509 0.847991 -0.248361 -0.558561 0.847995 -0.248362 -0.558565 0.000001 0.000000 0.000000 0.848001 -0.248362 -0.558562 0.848067 -0.248361 -0.558563 0.000001 -0.000000 -0.000000 0.000001 0.000000 0.000000 1.715990 -9.936711 -14.902122 -24.776597 2.630581 -69.546537 0.000008 -31.105767 0.000023 13.478818 3.234113 3.610634 -6.081353 -6.401417 4.516879 7.673179 25.364917 2.440328 0.000000 -0.000003 -0.000006 0.651471 4.252295 -23.712419 0.599555 2.583644 -26.125060 -0.000003 -0.000001 -0.000002 0.226704 3.731577 -13.515151 0.658498 2.700405 -27.403930 -0.000002 0.000002 -0.000001 0.514704 4.612955 -22.348838 0.646254 2.676704 -27.142972 0.000001 -0.000001 0.000001 0.711879 5.436271 -29.622933 0.165275 1.383125 -13.627704 -0.000004 -0.000004 0.000003 0.000001 -0.000000 0.000001 0.000001 -0.000000 0.000001 0.000001 -0.000000 0.000000 -0.000000 0.000000 -0.000000 -0.000000 0.000000 -0.000000 -0.000000 0.000000 -0.000000 -0.000000 0.000000 -0.000000 4.761072 17.944539 5.702662 -14.563888 1.287614 66.173045 -0.000001 22.043440 0.000001 11.372141 9.445009 1.240963 -7.263328 -3.614809 -4.572128 7.947065 -28.004524 -3.116659 0.000003 -0.000003 0.000001 0.172981 -0.794679 13.759601 0.322847 -1.705422 21.437814 -0.000003 0.000000 0.000002 0.457579 -4.194012 25.420955 0.322983 -1.705746 21.442394 0.000005 0.000002 0.000001 2.044352 -6.644495 34.137846 0.323615 -1.707340 21.463374 0.000003 0.000001 -0.000002 1.412184 -7.994638 41.449437 0.322841 -1.705400 21.437928 -0.000003 0.000003 -0.000003 -0.000000 0.000000 0.000000 -0.000000 -0.000001 0.000000 -0.000000 0.000001 -0.000000 0.000001 0.000000 0.000000 0.000001 0.000000 -0.000000 0.000001 0.000000 0.000000 0.000001 -0.000000 -0.000000 -0.000001 0.000000 -0.000000 -0.000001 0.000000 -0.000000 -0.000001 0.000000 -0.000000 -0.000001 0.000000 -0.000000 -0.000001 0.000000 -0.000000 -0.000001 0.000000 -0.000000 -0.000001 0.000000 -0.000000 -0.000000 -0.000000 -0.000000 -0.000000 0.000000 0.000000 
0.927454 88.281143 5.149923 5.048469 -6.658491 -0.994649 -0.000000 -0.000000 -0.000000 -44.952829 3.777725 22.692685 61.769997 9.170860 -1.833376 16.705970 1.845453 -11.790607 0.000002 0.000000 -0.000000 -0.000003 -0.000002 0.000001 -33.006175 -6.323000 4.281264 47.594247 -2.898119 -1.067220 -21.723225 -4.240097 -3.336589 -0.000000 -0.000002 -0.000000 0.000002 -0.000001 -0.000000 8.907288 3.426618 5.068083 6.246286 1.649746 1.101727 6.243473 1.585120 1.106507 0.824741 -0.271937 -0.558742 0.824726 -0.271935 -0.558739 -0.000001 0.000000 0.000000 0.824729 -0.271935 -0.558739 0.824818 -0.271939 -0.558738 -0.000001 -0.000000 -0.000000 -0.000001 0.000000 0.000000 1.713460 -10.007914 -14.804884 -23.968153 3.304930 -69.741675 0.000001 -31.302938 0.000004 12.525676 3.187192 3.619111 -6.296290 -7.124033 4.251661 7.836216 26.627890 2.531676 -0.000000 0.000000 -0.000004 0.856136 2.672344 -19.557393 0.605916 2.596573 -26.265851 -0.000001 -0.000000 -0.000001 0.222998 3.716088 -13.359528 0.688049 2.756606 -28.024753 0.000002 -0.000000 -0.000002 0.561765 4.724215 -22.867680 0.661691 2.706524 -27.471325 0.000000 -0.000004 -0.000001 0.421030 5.981531 -30.199999 0.172023 1.410633 -13.904256 0.000003 -0.000007 0.000002 -0.000000 -0.000002 0.000002 -0.000000 -0.000002 0.000002 -0.000000 -0.000002 0.000002 0.000000 -0.000001 -0.000000 0.000000 -0.000001 -0.000001 0.000000 -0.000001 -0.000000 0.000000 -0.000001 -0.000000 4.535285 18.188527 6.096816 -13.545629 1.053096 65.124495 0.000009 22.491842 -0.000018 10.852622 9.164046 1.434163 -6.518442 -2.868979 -4.093058 7.923587 -27.798527 -3.103718 -0.000002 -0.000001 0.000001 0.455879 -0.034411 12.291024 0.327700 -1.717702 21.600123 0.000001 -0.000002 -0.000002 0.292612 -3.816181 23.662325 0.327504 -1.717212 21.593710 0.000002 0.000002 -0.000001 1.939781 -6.611916 32.284767 0.327985 -1.718419 21.609653 -0.000002 0.000001 0.000001 1.105416 -8.986074 39.554015 0.327091 -1.716159 21.579913 -0.000002 0.000002 -0.000003 -0.000000 0.000001 -0.000000 -0.000000 0.000001 -0.000000 -0.000000 0.000001 -0.000000 0.000001 0.000001 -0.000001 0.000002 0.000001 -0.000001 0.000001 0.000001 -0.000001 0.000002 0.000001 -0.000000 0.000000 0.000000 0.000000 0.000000 0.000000 0.000000 0.000000 0.000000 0.000000 0.000000 0.000000 0.000000 0.000000 0.000000 0.000000 0.000000 0.000000 0.000000 0.000000 0.000000 0.000000 0.000000 0.000000 0.000000 -0.000000 -0.000000 -0.000000 
0.895980 88.845680 5.178865 4.746512 -6.475786 -0.774037 0.000001 0.000000 -0.000000 -44.402175 4.187957 22.004349 59.396124 8.820415 -1.817488 18.695959 -0.073614 -10.110519 0.000001 -0.000002 0.000001 -0.000002 -0.000001 -0.000000 -31.756719 -6.230624 3.947285 45.863545 -3.995505 -1.038838 -20.953668 -3.154826 -2.868192 -0.000000 -0.000001 0.000000 0.000000 -0.000000 -0.000001 8.620482 3.454760 5.020405 5.988120 2.079217 1.148896 5.986312 1.993776 1.115657 0.783328 -0.306643 -0.561700 0.783320 -0.306642 -0.561698 0.000001 0.000000 0.000000 0.783389 -0.306646 -0.561696 0.783373 -0.306644 -0.561697 0.000000 0.000000 0.000000 0.000001 0.000000 0.000000 1.697891 -10.117774 -14.668383 -22.716427 4.061655 -70.045625 0.000001 -31.584031 -0.000008 11.025839 3.100235 3.617187 -6.606007 -8.142149 3.871949 8.065619 28.410732 2.655498 0.000001 -0.000002 -0.000003 1.475613 0.551987 -13.743878 0.615087 2.615048 -26.467576 -0.000000 -0.000001 -0.000002 0.217647 3.693428 -13.132056 0.733065 2.839439 -28.946622 0.000000 -0.000002 -0.000002 0.635055 4.889198 -23.643419 0.685307 2.751431 -27.967396 -0.000000 -0.000000 -0.000002 0.001677 6.817008 -31.062942 0.182548 1.452507 -14.325891 0.000001 -0.000003 -0.000001 -0.000000 -0.000003 0.000001 -0.000000 -0.000003 0.000001 -0.000000 -0.000003 0.000001 -0.000000 0.000000 0.000001 -0.000000 0.000000 0.000000 -0.000000 0.000000 0.000001 -0.000000 -0.000001 0.000001 4.176182 18.575053 6.718294 -12.220566 0.105597 63.713056 -0.000001 23.158953 -0.000002 10.016012 8.746564 1.718838 -5.436113 -1.737626 -3.412040 7.887290 -27.480201 -3.083587 0.000000 -0.000003 -0.000001 0.938010 1.057714 10.084847 0.334165 -1.733965 21.815351 0.000000 -0.000001 -0.000003 0.083970 -3.240461 21.033556 0.333738 -1.732863 21.800709 -0.000003 0.000000 -0.000002 1.780629 -6.557631 29.497634 0.334086 -1.733728 21.812231 0.000000 0.000000 0.000004 0.514214 -10.436661 36.646728 0.333074 -1.731195 21.778745 -0.000001 0.000003 0.000001 -0.000001 -0.000001 0.000000 -0.000001 -0.000001 -0.000000 -0.000001 -0.000001 0.000000 -0.000001 0.000000 0.000001 -0.000001 0.000000 0.000000 -0.000001 0.000000 0.000001 -0.000001 -0.000000 0.000000 0.000001 -0.000000 -0.000000 0.000001 -0.000000 -0.000000 0.000001 -0.000000 -0.000000 0.000001 -0.000000 -0.000000 0.000001 -0.000000 -0.000000 0.000001 -0.000000 -0.000000 0.000001 -0.000000 -0.000000 0.000001 0.000000 0.000000 0.000001 0.000000 -0.000000 
